<svg width="300" height="300" xmlns="http://www.w3.org/2000/svg">
  <!-- Background -->
  <rect width="300" height="300" fill="#7c3aed" />
  
  <!-- Blouse -->
  <rect x="100" y="150" width="100" height="150" fill="#f8fafc" />
  <rect x="90" y="150" width="120" height="30" fill="#f8fafc" />
  
  <!-- Blazer -->
  <path d="M90,150 L90,300 L110,300 L110,170 Z" fill="#1e293b" />
  <path d="M210,150 L210,300 L190,300 L190,170 Z" fill="#1e293b" />
  
  <!-- Head -->
  <circle cx="150" cy="100" r="50" fill="#f8d9b5" />
  
  <!-- Hair -->
  <path d="M150,50 C110,50 100,90 110,110 C120,120 130,100 150,100 C170,100 180,120 190,110 C200,90 190,50 150,50" fill="#FFD700" />
  <path d="M100,100 C100,120 120,140 150,140 C180,140 200,120 200,100" fill="#FFD700" />
  
  <!-- Eyes -->
  <ellipse cx="130" cy="90" rx="8" ry="5" fill="#333333" />
  <ellipse cx="170" cy="90" rx="8" ry="5" fill="#333333" />
  
  <!-- Eyebrows -->
  <path d="M120,80 C125,75 135,75 140,80" stroke="#333333" stroke-width="2" fill="none" />
  <path d="M160,80 C165,75 175,75 180,80" stroke="#333333" stroke-width="2" fill="none" />
  
  <!-- Mouth -->
  <path d="M130,120 C140,130 160,130 170,120" stroke="#333333" stroke-width="2" fill="none" />
  <path d="M130,120 C140,125 160,125 170,120" fill="#FF6B6B" />
  
  <!-- Earrings -->
  <circle cx="95" cy="100" r="5" fill="#fcd34d" />
  <circle cx="205" cy="100" r="5" fill="#fcd34d" />
  
  <!-- Necklace -->
  <path d="M130,150 C140,160 160,160 170,150" stroke="#fcd34d" stroke-width="2" fill="none" />
  <circle cx="150" cy="160" r="5" fill="#fcd34d" />
</svg>
