<svg width="300" height="300" xmlns="http://www.w3.org/2000/svg">
  <!-- Background -->
  <rect width="300" height="300" fill="#8b5cf6" />
  
  <!-- Blouse -->
  <rect x="100" y="150" width="100" height="150" fill="#f8fafc" />
  <rect x="90" y="150" width="120" height="30" fill="#f8fafc" />
  
  <!-- Necklace -->
  <circle cx="150" cy="170" r="5" fill="#fcd34d" />
  <line x1="150" y1="170" x2="150" y2="190" stroke="#fcd34d" stroke-width="2" />
  
  <!-- Head -->
  <circle cx="150" cy="100" r="50" fill="#f8d9b5" />
  
  <!-- Hair -->
  <path d="M150,50 C110,50 100,90 100,120 C100,140 120,150 150,150 C180,150 200,140 200,120 C200,90 190,50 150,50" fill="#8B4513" />
  <path d="M100,120 C100,140 120,160 150,160 C180,160 200,140 200,120" fill="#8B4513" />
  
  <!-- Eyes -->
  <ellipse cx="130" cy="90" rx="8" ry="5" fill="#333333" />
  <ellipse cx="170" cy="90" rx="8" ry="5" fill="#333333" />
  
  <!-- Eyebrows -->
  <path d="M120,80 C125,75 135,75 140,80" stroke="#333333" stroke-width="2" fill="none" />
  <path d="M160,80 C165,75 175,75 180,80" stroke="#333333" stroke-width="2" fill="none" />
  
  <!-- Mouth -->
  <path d="M130,120 C140,130 160,130 170,120" stroke="#333333" stroke-width="2" fill="none" />
  <path d="M130,120 C140,125 160,125 170,120" fill="#FF6B6B" />
  
  <!-- Earrings -->
  <circle cx="95" cy="100" r="5" fill="#fcd34d" />
  <circle cx="205" cy="100" r="5" fill="#fcd34d" />
</svg>
